# xmcd CD database file
#
# Track frame offsets:
#	150
#	27960
#	51695
#	68222
#	94798
#	114054
#	127055
#	144924
#	174151
#	187927
#	223188
#	252170
#	277339
#	309326
#
# Disc length: 4472 seconds
#
# Revision: 4
# Processed by: cddbd v1.5.2PL0 Copyright (c) Steve Scherf et al.
# Submitted via: CDex 1.50
#
DISCID=cc11760e
DTITLE=Various Artist - Futuro Flamenco
DYEAR=2002
DGENRE=Dance
TTITLE0=Rey De Copas - Frontera Del Ensueno (Jerez De Frontera Mix)
TTITLE1=Madrid De Los Austrias - Los Canos De Meca
TTITLE2=Bartholomaus and Raabenstein - A Night Out With Nel Foltz
TTITLE3=Banda Sonora - Guitarra  G (Afterlife Remix)
TTITLE4=Simian - Reasons
TTITLE5=Nitin Sawhney - Herecica Latino
TTITLE6=Manitas De Plata - Sol De Mi Tierra
TTITLE7=Oi Va Voi - D' Ror Yikra
TTITLE8=Los Chorbos - Sones Del Chicharro
TTITLE9=Gypsy - Gypsy (Retouched By The Hand Of Jazz Twit)
TTITLE10=Julious Papp - Libido (Sunset Excursion)
TTITLE11=The Latin Project - En Fuego
TTITLE12=Aco Bocina - Rumba Del Sol (Martin Morales and Mikey Benn Remix)
TTITLE13=Howie B - Making Love On Your Side (S Man's Dark Gypsy Mix)
EXTD=YEAR: 2002
EXTT0=
EXTT1=
EXTT2=
EXTT3=
EXTT4=
EXTT5=
EXTT6=
EXTT7=
EXTT8=
EXTT9=
EXTT10=
EXTT11=
EXTT12=
EXTT13=
PLAYORDER=
